<svg xmlns="http://www.w3.org/2000/svg" width="104.659" height="58.567" viewBox="0 0 104.659 58.567">
  <g id="weorder_SVG" data-name="weorder SVG" transform="translate(0)">
    <path id="Path_1" data-name="Path 1" d="M24.343,301.4a7.476,7.476,0,0,1-2.283-5.606,7.4,7.4,0,0,1,2.249-5.6,7.837,7.837,0,0,1,5.639-2.145,7.818,7.818,0,0,1,5.673,2.145,7.445,7.445,0,0,1,2.214,5.6,7.536,7.536,0,0,1-2.249,5.606,7.711,7.711,0,0,1-5.639,2.214A7.742,7.742,0,0,1,24.343,301.4Z" transform="translate(-19.026 -248.426)" fill="#fff"/>
    <path id="Path_2" data-name="Path 2" d="M161.7,87.33h3.294V98.236a10.88,10.88,0,0,1-10.908,10.938q-5.074,0-9.275-4.985-4.23,4.984-9.275,4.985A10.931,10.931,0,0,1,124.6,98.236V87.33h3.292V98.236a7.627,7.627,0,0,0,13.021,5.409,7.431,7.431,0,0,0,2.236-5.409V87.33h3.293V98.236a7.63,7.63,0,0,0,7.643,7.644,7.271,7.271,0,0,0,5.379-2.235,7.426,7.426,0,0,0,2.235-5.409Z" transform="translate(-107.464 -75.32)" fill="#fff"/>
    <path id="Path_3" data-name="Path 3" d="M496.244,90.441a10.92,10.92,0,0,0-18.638,7.7,10.491,10.491,0,0,0,2.99,7.492,11.264,11.264,0,0,0,6.739,3.3v-3.148q-1.932,0-4.2-2.235a7.628,7.628,0,0,1,5.408-13.021q4.713,0,7.7,5.981h-5.8v3.3h9V98.145a10.528,10.528,0,0,0-3.21-7.7Z" transform="translate(-411.921 -75.244)" fill="#fff"/>
    <path id="Path_4" data-name="Path 4" d="M10.936,288.217a10.526,10.526,0,0,1-7.735-3.2,10.905,10.905,0,0,1,0-15.438,10.536,10.536,0,0,1,7.735-3.2,10.5,10.5,0,0,1,7.7,3.2,10.9,10.9,0,0,1,0,15.438,10.524,10.524,0,0,1-7.7,3.2Zm0-18.55A7.434,7.434,0,0,0,5.528,271.9a7.622,7.622,0,0,0,0,10.786,7.424,7.424,0,0,0,5.408,2.235,7.633,7.633,0,0,0,7.614-7.644,7.4,7.4,0,0,0-2.236-5.377,7.389,7.389,0,0,0-5.377-2.234Z" transform="translate(0 -229.74)" fill="#16243f"/>
    <path id="Path_5" data-name="Path 5" d="M176.4,277.285a10.936,10.936,0,0,1,10.936-10.9h3.777v3.293h-3.777a7.63,7.63,0,0,0-7.643,7.612v10.936H176.4Z" transform="translate(-152.14 -229.745)" fill="#16243f"/>
    <path id="Path_6" data-name="Path 6" d="M319.155,204h3.292v19h.03q-.3,5.441-3.474,8.43a10.905,10.905,0,1,1-15.192-15.649q3.2-3.2,6.526-3.2v3.294q-1.934,0-4.2,2.235a7.628,7.628,0,1,0,13.023,5.377Z" transform="translate(-259.215 -175.944)" fill="#16243f"/>
    <path id="Path_7" data-name="Path 7" d="M495.914,269.193a10.906,10.906,0,1,0-15.649,15.2,11.271,11.271,0,0,0,6.74,3.3v-3.15q-1.932,0-4.2-2.235a7.628,7.628,0,0,1,5.408-13.021q4.713,0,7.7,5.981h-5.8v3.294h9V276.9A10.541,10.541,0,0,0,495.914,269.193Z" transform="translate(-411.591 -229.356)" fill="#16243f"/>
    <path id="Path_8" data-name="Path 8" d="M654,277.285a10.936,10.936,0,0,1,10.936-10.9h3.779v3.293h-3.781a7.63,7.63,0,0,0-7.644,7.612v10.936H654Z" transform="translate(-564.057 -229.745)" fill="#16243f"/>
    <rect id="Rectangle_1" data-name="Rectangle 1" width="3.323" height="35.328" transform="translate(59.94)" fill="#16243f"/>
  </g>
</svg>
