<svg id="style_fill" data-name="style=fill" xmlns="http://www.w3.org/2000/svg" width="18.192" height="15.654" viewBox="0 0 18.192 15.654">
  <g id="email" transform="translate(0 0)">
    <path id="Subtract" d="M6.115,2.75a5.006,5.006,0,0,0-3.5,1.174A4.822,4.822,0,0,0,1.25,7.615v5.923a4.822,4.822,0,0,0,1.366,3.691,5.006,5.006,0,0,0,3.5,1.174h8.461a5.006,5.006,0,0,0,3.5-1.174,4.822,4.822,0,0,0,1.366-3.691V7.615a4.822,4.822,0,0,0-1.366-3.691,5.006,5.006,0,0,0-3.5-1.174ZM16.462,7.5a.635.635,0,0,0-.776-1l-4.694,3.627a1.058,1.058,0,0,1-1.293,0L5.006,6.495a.635.635,0,1,0-.776,1l4.694,3.627a2.327,2.327,0,0,0,2.846,0Z" transform="translate(-1.25 -2.75)" fill="#16243f" fill-rule="evenodd"/>
  </g>
</svg>
