<svg viewBox="366.59672727272726 350.71942399999995 460.2382826086956 553.9772720000001" xmlns="http://www.w3.org/2000/svg" style="max-height: 500px" width="460.2382826086956" height="553.9772720000001">
  <path fill="#ffcd05" transform="translate(0 259.803) rotate(-19)" d="M320.073,101.45c40.036-51.461,117.819-51.461,157.854,0l63.637,81.8a100,100,0,0,0,42.917,31.887L683.61,253.4c59.065,22.8,82.345,94.053,48.134,147.327L671.8,494.068a100,100,0,0,0-15.758,49.6l-4.848,109.206c-2.86,64.418-65.04,109.33-127.092,91.8l-97.912-27.665a100,100,0,0,0-54.381,0L273.9,744.672c-62.052,17.533-124.232-27.379-127.092-91.8l-4.848-109.206a100,100,0,0,0-15.758-49.6L66.256,400.725C32.045,347.451,55.325,276.2,114.39,253.4l99.128-38.263a100,100,0,0,0,42.917-31.887Z" data-name="Polygon 2" id="Polygon_2"/>
</svg>