<svg xmlns="http://www.w3.org/2000/svg" width="18.192" height="18.192" viewBox="0 0 18.192 18.192">
  <path id="phone-rounded-svgrepo-com" d="M10.865,5.5,11.6,6.819a3.22,3.22,0,0,1-.65,3.807h0S9.68,11.9,11.987,14.205s3.578,1.035,3.579,1.034h0a3.22,3.22,0,0,1,3.807-.65l1.322.738a3.207,3.207,0,0,1,.431,5.116,5.272,5.272,0,0,1-3.406,1.741c-2.17.082-5.854-.467-9.55-4.163s-4.245-7.38-4.163-9.55A5.273,5.273,0,0,1,5.749,5.066,3.207,3.207,0,0,1,10.865,5.5Z" transform="translate(-4 -4)" fill="#16243f"/>
</svg>
