<svg xmlns="http://www.w3.org/2000/svg" id="weorder_SVG" data-name="weorder SVG" width="480.574" height="268.515" viewBox="0 0 480.574 268.515">
  <path id="Path_1" data-name="Path 1" d="M32.543,349.365Q22.06,339.2,22.06,323.625q0-15.876,10.325-25.734t25.892-9.851q15.876,0,26.05,9.851t10.167,25.734q0,15.573-10.325,25.74T58.277,359.532Q43.026,359.532,32.543,349.365Z" transform="translate(-8.129 -106.142)" fill="#ffffff"/>
  <path id="Path_2" data-name="Path 2" d="M294.954,87.33h15.124v50.078a49.958,49.958,0,0,1-50.085,50.223q-23.3,0-42.589-22.892-19.425,22.886-42.589,22.892A50.194,50.194,0,0,1,124.6,137.408V87.33h15.118v50.078a35.022,35.022,0,0,0,59.791,24.837,34.119,34.119,0,0,0,10.268-24.837V87.33H224.9v50.078a35.037,35.037,0,0,0,35.093,35.1,33.388,33.388,0,0,0,24.7-10.262,34.1,34.1,0,0,0,10.262-24.837Z" transform="translate(-45.915 -32.181)" fill="#ffffff"/>
  <path id="Path_3" data-name="Path 3" d="M563.191,101.918a50.141,50.141,0,0,0-85.581,35.364,48.173,48.173,0,0,0,13.729,34.4q11.519,12.207,30.944,15.156V172.381q-8.873,0-19.28-10.262a35.026,35.026,0,0,1,24.831-59.791q21.642,0,35.364,27.464H536.586v15.131h41.345v-7.629A48.343,48.343,0,0,0,563.191,101.918Z" transform="translate(-175.998 -32.137)" fill="#ffffff"/>
  <path id="Path_4" data-name="Path 4" d="M50.217,366.675a48.336,48.336,0,0,1-35.516-14.7,50.075,50.075,0,0,1,0-70.886A48.379,48.379,0,0,1,50.217,266.38a48.19,48.19,0,0,1,35.364,14.708,50.06,50.06,0,0,1,0,70.886A48.325,48.325,0,0,1,50.217,366.675Zm0-85.177A34.136,34.136,0,0,0,25.386,291.76a35,35,0,0,0,0,49.529,34.088,34.088,0,0,0,24.831,10.262,35.047,35.047,0,0,0,34.96-35.1A33.965,33.965,0,0,0,74.909,291.76,33.928,33.928,0,0,0,50.217,281.5Z" transform="translate(0 -98.16)" fill="#16243f"/>
  <path id="Path_5" data-name="Path 5" d="M176.4,316.452a50.215,50.215,0,0,1,50.217-50.072h17.341V281.5H226.617a35.037,35.037,0,0,0-35.093,34.954v50.217H176.4Z" transform="translate(-65.003 -98.16)" fill="#16243f"/>
  <path id="Path_6" data-name="Path 6" d="M386.152,204H401.27v87.242h.139q-1.383,24.982-15.952,38.711A50.076,50.076,0,0,1,315.7,258.1q14.7-14.708,29.965-14.708v15.125q-8.879,0-19.286,10.262a35.024,35.024,0,1,0,59.8,24.692Z" transform="translate(-110.918 -75.173)" fill="#16243f"/>
  <path id="Path_7" data-name="Path 7" d="M563.191,281.078a50.082,50.082,0,0,0-71.852,69.775q11.519,12.207,30.944,15.156V351.547q-8.873,0-19.28-10.262a35.026,35.026,0,0,1,24.831-59.791q21.642,0,35.364,27.464H536.586v15.125h41.345v-7.635A48.4,48.4,0,0,0,563.191,281.078Z" transform="translate(-175.998 -98.157)" fill="#16243f"/>
  <path id="Path_8" data-name="Path 8" d="M654,316.452a50.216,50.216,0,0,1,50.217-50.072h17.354V281.5h-17.36a35.037,35.037,0,0,0-35.1,34.954v50.217H654Z" transform="translate(-240.997 -98.16)" fill="#16243f"/>
  <rect id="Rectangle_1" data-name="Rectangle 1" width="15.257" height="162.221" transform="translate(275.234)" fill="#16243f"/>
</svg>