<svg id="Layer_1" data-name="Layer 1" xmlns="http://www.w3.org/2000/svg" viewBox="0 0 760.97 425.2"><defs><style>.cls-1{fill:#ffcd05;}.cls-2{fill:#16243f;}</style></defs><path class="cls-1" d="M38.66,385.15q-16.6-16.09-16.6-40.76,0-25.14,16.35-40.75t41-15.6q25.14,0,41.25,15.6t16.1,40.75q0,24.66-16.35,40.76t-41,16.1Q55.26,401.25,38.66,385.15Z"/><path class="cls-1" d="M394.36,87.33h23.95v79.3q0,33-23.06,56.25Q371.73,246.16,339,246.16q-36.9,0-67.44-36.25-30.76,36.24-67.44,36.25-33,0-56.24-23.28T124.6,166.63V87.33h23.94v79.3q0,22.85,16.26,39.33,16.47,16.24,39.32,16.25,22.62,0,39.1-16.25,16.26-16.47,16.26-39.33V87.33h23.95v79.3q0,22.85,16.25,39.33,16.47,16.24,39.32,16.25,23.07,0,39.11-16.25,16.26-16.47,16.25-39.33Z"/><path class="cls-1" d="M613.13,110.5q-23.29-23.28-56-23.29-33,0-56.24,23.29t-23.28,56q0,31.64,21.74,54.48,18.24,19.33,49,24v-22.9q-14.05,0-30.53-16.25-16.26-16.47-16.26-39.32,0-22.64,16.26-39.11,16.47-16.26,39.32-16.25,34.27,0,56,43.49H571V178.6h65.47V166.52Q636.42,133.79,613.13,110.5Z"/><path class="cls-2" d="M79.52,425.2q-33,0-56.24-23.28T0,345.67q0-32.71,23.28-56t56.24-23.29q32.73,0,56,23.29t23.29,56q0,33-23.29,56.25T79.52,425.2Zm0-134.88q-22.84,0-39.32,16.25-16.26,16.49-16.26,39.1,0,22.86,16.26,39.33,16.47,16.26,39.32,16.25,22.62,0,39.1-16.25,16.26-16.47,16.26-39.33,0-22.62-16.26-39.1Q102.15,290.31,79.52,290.32Z"/><path class="cls-2" d="M176.4,345.67q0-32.71,23.29-56t56.23-23.29h27.46v23.95H255.92q-22.84,0-39.32,16.25-16.26,16.49-16.25,39.1V425.2H176.4Z"/><path class="cls-2" d="M435.84,204h23.94V342.15H460q-2.19,39.56-25.26,61.3-22.86,21.75-54.26,21.75-32.94,0-56.24-23.28T301,345.67q0-32.71,23.28-56t47.45-23.29v23.95q-14.06,0-30.54,16.25-16.25,16.49-16.25,39.1,0,22.86,16.25,39.33,16.5,16.26,39.33,16.25,22.63,0,39.11-16.25,16.25-16.47,16.25-39.33Z"/><path class="cls-2" d="M613.13,289.66q-23.29-23.28-56-23.29-33,0-56.24,23.29t-23.28,56q0,31.63,21.74,54.49,18.24,19.33,49,24v-22.9q-14.05,0-30.53-16.25-16.26-16.47-16.26-39.33,0-22.62,16.26-39.1,16.47-16.26,39.32-16.25,34.27,0,56,43.49H571v23.95h65.47V345.67Q636.42,313,613.13,289.66Z"/><path class="cls-2" d="M654,345.67q0-32.71,23.29-56t56.23-23.29H761v23.95H733.51q-22.85,0-39.33,16.25-16.24,16.49-16.25,39.1V425.2H654Z"/><rect class="cls-2" x="435.84" width="24.16" height="256.88"/></svg>