<?xml version="1.0" standalone="no"?>
<svg xmlns:xlink="http://www.w3.org/1999/xlink" id="wave" style="transform:rotate(0deg); transition: 0.3s" viewBox="0 0 1440 490" version="1.1" xmlns="http://www.w3.org/2000/svg"><defs><linearGradient id="sw-gradient-0" x1="0" x2="0" y1="1" y2="0"><stop stop-color="rgba(255, 205, 5, 1)" offset="0%"/><stop stop-color="rgba(255, 205, 5, 1)" offset="100%"/></linearGradient></defs><path style="transform:translate(0, 0px); opacity:1" fill="url(#sw-gradient-0)" d="M0,0L60,0C120,0,240,0,360,65.3C480,131,600,261,720,285.8C840,310,960,229,1080,204.2C1200,180,1320,212,1440,228.7C1560,245,1680,245,1800,245C1920,245,2040,245,2160,261.3C2280,278,2400,310,2520,343C2640,376,2760,408,2880,392C3000,376,3120,310,3240,245C3360,180,3480,114,3600,106.2C3720,98,3840,147,3960,147C4080,147,4200,98,4320,122.5C4440,147,4560,245,4680,269.5C4800,294,4920,245,5040,253.2C5160,261,5280,327,5400,318.5C5520,310,5640,229,5760,163.3C5880,98,6000,49,6120,65.3C6240,82,6360,163,6480,187.8C6600,212,6720,180,6840,187.8C6960,196,7080,245,7200,261.3C7320,278,7440,261,7560,269.5C7680,278,7800,310,7920,326.7C8040,343,8160,343,8280,294C8400,245,8520,147,8580,98L8640,49L8640,490L8580,490C8520,490,8400,490,8280,490C8160,490,8040,490,7920,490C7800,490,7680,490,7560,490C7440,490,7320,490,7200,490C7080,490,6960,490,6840,490C6720,490,6600,490,6480,490C6360,490,6240,490,6120,490C6000,490,5880,490,5760,490C5640,490,5520,490,5400,490C5280,490,5160,490,5040,490C4920,490,4800,490,4680,490C4560,490,4440,490,4320,490C4200,490,4080,490,3960,490C3840,490,3720,490,3600,490C3480,490,3360,490,3240,490C3120,490,3000,490,2880,490C2760,490,2640,490,2520,490C2400,490,2280,490,2160,490C2040,490,1920,490,1800,490C1680,490,1560,490,1440,490C1320,490,1200,490,1080,490C960,490,840,490,720,490C600,490,480,490,360,490C240,490,120,490,60,490L0,490Z"/></svg>